<svg width="512" height="512" viewBox="0 0 512 512" fill="none" xmlns="http://www.w3.org/2000/svg">
  <rect width="512" height="512" rx="128" fill="#6366F1"/>
  <path d="M150 120H320C342.091 120 360 137.909 360 160V352C360 374.091 342.091 392 320 392H150C138.954 392 130 383.046 130 372V140C130 128.954 138.954 120 150 120Z" fill="white" fill-opacity="0.2"/>
  <path d="M200 160H340C351.046 160 360 168.954 360 180V372C360 383.046 351.046 392 340 392H200C188.954 392 180 383.046 180 372V180C180 168.954 188.954 160 200 160Z" fill="white"/>
  <rect x="220" y="210" width="80" height="12" rx="6" fill="#6366F1"/>
  <rect x="220" y="240" width="100" height="12" rx="6" fill="#6366F1"/>
  <rect x="220" y="270" width="60" height="12" rx="6" fill="#6366F1"/>
</svg>
